<!-- Mark: Phosphor "Timer", bold, from @phosphor-icons/react 2.1.10 (MIT).
     Same family and weight as every icon in the app. Regenerate the PNGs with
     the rsvg-convert commands in README.md. -->
<svg xmlns="http://www.w3.org/2000/svg" viewBox="0 0 64 64" role="img" aria-label="pwomwo">
  <defs>
    <linearGradient id="sky" x1="0" y1="0" x2="0" y2="1">
      <stop offset="0" stop-color="#151130" />
      <stop offset="0.5" stop-color="#2f1e4b" />
      <stop offset="0.72" stop-color="#6d395b" />
      <stop offset="0.88" stop-color="#b55e52" />
      <stop offset="1" stop-color="#e68e60" />
    </linearGradient>
  </defs>
  <rect width="64" height="64" fill="url(#sky)" />
  <g transform="translate(14.3448 15.4483) scale(0.1379)" fill="#fff">
    <path d="M128,44a96,96,0,1,0,96,96A96.11,96.11,0,0,0,128,44Zm0,168a72,72,0,1,1,72-72A72.08,72.08,0,0,1,128,212ZM164.49,99.51a12,12,0,0,1,0,17l-28,28a12,12,0,0,1-17-17l28-28A12,12,0,0,1,164.49,99.51ZM92,16A12,12,0,0,1,104,4h48a12,12,0,0,1,0,24H104A12,12,0,0,1,92,16Z" />
  </g>
</svg>
